<svg width="15" height="20" viewBox="0 0 15 20" fill="none" xmlns="http://www.w3.org/2000/svg">
<path d="M13.3984 5.22388V18.8433C13.3984 19.4776 12.8516 20 12.1875 20H2.79297C2.12891 20 1.58203 19.4776 1.58203 18.8433V5.22388H13.3984ZM10.332 6.73508V18.4515H11.0352V6.73508H10.332ZM7.14844 6.73508V18.4515H7.85156V6.73508H7.14844ZM3.96484 6.73508V18.4515H4.66797V6.73508H3.96484ZM4.74609 2.0709V1.10075C4.74609 0.485075 5.25391 0 5.89844 0H9.10156C9.74609 0 10.2539 0.485075 10.2539 1.10075V2.0709H13.7891C14.4531 2.0709 15 2.59328 15 3.22761V4.02985H0V3.20896C0 2.57463 0.546875 2.05224 1.21094 2.05224H4.74609V2.0709ZM5.89844 0.746269C5.70312 0.746269 5.54687 0.895523 5.54687 1.08209V2.05224H9.47266V1.08209C9.47266 0.895523 9.31641 0.746269 9.12109 0.746269H5.89844Z" fill="#D22D16"/>
</svg>
