<svg width="25" height="20" viewBox="0 0 25 20" fill="none" xmlns="http://www.w3.org/2000/svg">
<path d="M12.5 16C15.0888 16 17.1875 13.3137 17.1875 10C17.1875 6.68629 15.0888 4 12.5 4C9.91117 4 7.8125 6.68629 7.8125 10C7.8125 13.3137 9.91117 16 12.5 16Z" fill="#437FC7"/>
<path d="M12.5 0C4.6875 0 0 9.938 0 9.938C0 9.938 4.6875 20 12.5 20C20.3125 20 25 10 25 10C25 10 20.3125 0 12.5 0ZM12.5 18C5.66406 18 1.95312 10 1.95312 10C1.95312 10 5.66406 2 12.5 2C19.3359 2 23.0469 10 23.0469 10C23.0469 10 19.3359 18 12.5 18Z" fill="#437FC7"/>
</svg>
